<?xml version="1.0" encoding="UTF-8"?>
<svg id="Layer_1" data-name="Layer 1" xmlns="http://www.w3.org/2000/svg" viewBox="0 0 266.81 232.73">
  <path d="M252.09,109.14c-2.63-.08-5.12-.18-7.49-.28-.24,0-.47-.02-.71-.03-1.48-.08-2.9-.15-4.29-.23-.3-.02-.6-.04-.9-.06-2.17-.13-4.22-.27-6.15-.44-2.41-.2-4.65-.42-6.73-.67,1.29-6.65,1.99-13.75,1.99-21.15,0-36.02-16.59-65.33-36.98-65.33-11.59,0-21.94,9.46-28.72,24.23-6.79-14.77-17.14-24.23-28.71-24.23s-21.94,9.46-28.72,24.23c-6.79-14.77-17.14-24.23-28.72-24.23-14.75,0-27.49,15.33-33.42,37.44-2.43.31-5.08.59-7.99.84-1.99.17-4.11.33-6.37.47-.32.02-.64.04-.97.06-1.42.09-2.91.16-4.43.24-.19.01-.38.02-.57.02-2.28.1-4.68.18-7.2.26-4.58.14-9.56.23-15.01.29,5.45.05,10.44.14,15.01.28,2.52.08,4.92.17,7.2.27.06,0,.13.01.19.01,1.67.07,3.28.15,4.81.25.13,0,.25.01.38.02,2.48.15,4.8.32,6.96.51,2.5.22,4.8.47,6.94.74-1.62,7.33-2.51,15.29-2.51,23.63,0,36.01,16.59,65.32,36.98,65.32,11.59,0,21.95-9.46,28.72-24.23,6.79,14.77,17.14,24.23,28.72,24.23s21.94-9.46,28.71-24.23c6.79,14.77,17.15,24.23,28.72,24.23h.03c15.32,0,28.49-16.55,34.1-40.07,2.32-.3,4.83-.57,7.59-.81,1.77-.15,3.63-.28,5.6-.41.48-.03.96-.06,1.45-.09,1.27-.08,2.58-.15,3.91-.21.36-.02.72-.03,1.09-.05,2.37-.1,4.86-.2,7.49-.28,4.5-.13,9.39-.23,14.72-.27-5.34-.06-10.23-.15-14.72-.27ZM162.16,52.94c3.3,9.66,5.21,21.09,5.21,33.34,0,7.43-.7,14.56-1.99,21.19h-.02c-1.34.24-2.75.48-4.26.71-.64.09-1.29.19-1.95.27-1.41-6.9-2.2-14.37-2.2-22.17,0-12.25,1.91-23.68,5.21-33.34ZM104.7,52.95c.72,2.09,1.36,4.27,1.94,6.52-.65-.09-1.32-.19-1.94-.28v-.02c-.62-.09-1.21-.19-1.79-.28.53-2.05,1.13-4.02,1.79-5.94ZM75.98,23.55c11.11,0,21,9.93,27.19,25.25-1.21,3.02-2.27,6.22-3.17,9.58-.08-.01-.19-.04-.27-.05h0c-16.72-3.27-20.34-8.07-26.57-19.67-5.28,9.84-7.05,16.08-27.42,19.28,5.6-20.39,17.05-34.39,30.24-34.39ZM76,149.02h-.02c-18.71-.01-33.92-28.15-33.92-62.73,0-8.2.86-16.03,2.42-23.22,21.22,3.21,23.32,9.58,28.68,19.58,5.99-11.17,9.79-15.95,24.87-19.23.25-.06.55-.1.8-.16-1.53,7.16-2.37,14.92-2.37,23.03,0,13.95,2.49,26.87,6.72,37.49-6.19,15.3-16.07,25.24-27.18,25.24ZM99.5,86.28c0-8.37.9-16.34,2.51-23.64.54-.1,1.05-.19,1.62-.29,1.14-.19,2.36-.37,3.6-.56,1.73,7.53,2.69,15.81,2.69,24.49,0,12.24-1.9,23.66-5.21,33.32-3.28-9.66-5.21-21.09-5.21-33.32ZM133.41,149.02h.02c-11.11-.01-20.99-9.94-27.19-25.25,4.23-10.62,6.73-23.55,6.73-37.49,0-8.82-1-17.23-2.8-24.9,1.78-.24,3.66-.49,5.67-.73-2.15-.25-4.14-.49-6.04-.74-.98-3.92-2.18-7.64-3.56-11.11,6.2-15.31,16.08-25.25,27.19-25.25s21,9.93,27.19,25.25c-4.23,10.61-6.73,23.54-6.73,37.49,0,7.92.81,15.53,2.27,22.58-1.63.21-3.35.41-5.16.63,1.93.22,3.74.46,5.45.69,1.09,4.84,2.48,9.4,4.15,13.59-6.19,15.3-16.08,25.24-27.19,25.24ZM159.62,110.61c.21.04.44.06.65.1,1.5.23,2.91.46,4.25.7-.67,2.86-1.46,5.6-2.36,8.2-.98-2.85-1.82-5.85-2.54-9ZM190.86,149c-11.11,0-20.99-9.93-27.18-25.24,1.46-3.68,2.71-7.62,3.74-11.8,16.24,3.27,20.11,7.99,26.26,19.5,5.3-9.91,7.43-16.25,28.12-19.49-5.32,21.81-17.18,37.03-30.94,37.03ZM222.88,107.03c-22.01-3.13-23.75-9.41-29.2-19.54-6.05,11.28-9.66,16.13-25.17,19.36,1.22-6.47,1.89-13.39,1.89-20.57,0-13.95-2.49-26.88-6.72-37.5,6.19-15.3,16.07-25.24,27.18-25.24h0c18.71,0,33.93,28.15,33.93,62.74,0,7.27-.69,14.25-1.91,20.75Z" fill="#fff"/>
  <path d="M218.39,0H48.42c-14.45,0-26.21,11.75-26.21,26.21v28.01c0,.41.33.74.74.74h3.52c.41,0,.74-.33.74-.74v-28.01c0-11.7,9.52-21.21,21.21-21.21h169.97c11.69,0,21.21,9.51,21.21,21.21v76.83c0,.41.33.74.74.74h3.52c.41,0,.74-.33.74-.74V26.21c0-14.46-11.76-26.21-26.21-26.21ZM239.6,206.52c0,11.7-9.52,21.21-21.21,21.21H48.42c-11.69,0-21.21-9.51-21.21-21.21V66.98c0-.41-.33-.74-.74-.74h-3.52c-.41,0-.74.33-.74.74v139.54c0,14.46,11.76,26.21,26.21,26.21h169.97c14.48,0,26.21-11.73,26.21-26.21v-90.73c0-.41-.33-.74-.74-.74h-3.52c-.41,0-.74.33-.74.74v90.73ZM243.89,108.83c-1.48-.08-2.9-.15-4.29-.23v1.62c1.27-.08,2.58-.15,3.91-.21.36-.02.72-.03,1.09-.05v-1.1c-.24,0-.47-.02-.71-.03ZM22.78,60c-.19.01-.38.02-.57.02v1.1c.06,0,.13.01.19.01,1.67.07,3.28.15,4.81.25v-1.62c-1.42.09-2.91.16-4.43.24Z" fill="#fff"/>
  <g>
    <path d="M215.73,200.7c-.7-.7-1.55-1.05-2.55-1.05s-1.86.35-2.58,1.05c-.7.71-1.05,1.56-1.05,2.56s.35,1.86,1.05,2.57c.72.7,1.58,1.05,2.58,1.05s1.85-.35,2.55-1.05c.7-.71,1.05-1.57,1.05-2.57s-.35-1.85-1.05-2.56Z" fill="#fff"/>
    <g>
      <path d="M72.06,192.29l-.4-.94h-10.82v6.43h3.12v-3.32h5.57c.17.62.25,1.26.25,1.92,0,2.02-.72,3.74-2.15,5.17s-3.15,2.14-5.17,2.14-3.75-.71-5.17-2.14c-1.44-1.43-2.16-3.15-2.16-5.17,0-.99.19-1.95.58-2.86l-2.87-1.2c-.54,1.28-.81,2.64-.81,4.06,0,2.87,1.02,5.33,3.05,7.37,2.04,2.04,4.5,3.06,7.38,3.06s5.33-1.02,7.37-3.06,3.06-4.5,3.06-7.37c0-1.42-.27-2.79-.83-4.09Z" fill="#fff"/>
      <path d="M69.83,170.7c-2.04-2.04-4.49-3.06-7.37-3.06s-5.34,1.02-7.38,3.06c-2.03,2.04-3.05,4.5-3.05,7.37s1.02,5.34,3.05,7.38c2.04,2.04,4.5,3.06,7.38,3.06s5.33-1.02,7.37-3.06c2.04-2.04,3.06-4.5,3.06-7.38s-1.02-5.33-3.06-7.37ZM67.63,183.25c-1.43,1.43-3.15,2.14-5.17,2.14s-3.75-.71-5.17-2.14c-1.43-1.43-2.15-3.15-2.15-5.18s.72-3.74,2.15-5.17c1.42-1.43,3.15-2.14,5.17-2.14s3.74.71,5.17,2.14,2.15,3.16,2.15,5.17-.72,3.75-2.15,5.18Z" fill="#fff"/>
    </g>
    <g>
      <path d="M104.32,190.27c-1.49-1.85-3.38-3.05-5.67-3.58,1.62-.88,2.91-2.11,3.88-3.68.99-1.64,1.49-3.41,1.49-5.31,0-2.81-1-5.2-3-7.18-1.98-2-4.38-3-7.18-3h-11.42v39.5h13.89c2.83,0,5.25-1.01,7.27-3.03s3.02-4.44,3.02-7.29c0-2.42-.76-4.56-2.28-6.43ZM83.91,169h9.93c2.38,0,4.43.86,6.13,2.56,1.71,1.69,2.56,3.73,2.56,6.14s-.85,4.45-2.56,6.16-3.75,2.56-6.13,2.56h-9.93v-17.42ZM102.53,202.95c-1.72,1.72-3.8,2.58-6.22,2.58h-12.4v-17.63h12.4c2.42,0,4.5.85,6.22,2.56,1.72,1.72,2.59,3.81,2.59,6.24s-.87,4.53-2.59,6.25Z" fill="#fff"/>
      <path d="M136.35,167.52l-17.44,27.56h-.14v.25l-7.4,11.69h1.76l6.61-10.45h17.9v10.45h1.46v-39.5h-2.75ZM137.64,195.08h-16.97l16.97-26.82v26.82Z" fill="#fff"/>
      <path d="M165.96,168.65c2.64,0,5.17.54,7.6,1.62v-1.62c-2.44-.99-4.97-1.49-7.6-1.49-5.55,0-10.29,1.97-14.22,5.92-3.94,3.92-5.91,8.66-5.91,14.22s1.97,10.29,5.91,14.22c3.93,3.94,8.67,5.91,14.22,5.91,2.63,0,5.16-.49,7.6-1.48v-1.6c-2.43,1.07-4.96,1.6-7.6,1.6-5.15,0-9.54-1.83-13.17-5.48-3.65-3.63-5.48-8.02-5.48-13.17s1.83-9.53,5.48-13.18c3.63-3.65,8.02-5.47,13.17-5.47Z" fill="#fff"/>
      <path d="M187.16,187.19l15.82-19.67h-1.9l-19.59,24.37v-24.34h-1.48v39.47h1.48v-12.76l4.7-5.89,15.35,18.65h1.93l-16.31-19.83Z" fill="#fff"/>
    </g>
  </g>
</svg>