<?xml version="1.0" encoding="UTF-8"?>
<svg id="Layer_1" data-name="Layer 1" xmlns="http://www.w3.org/2000/svg" viewBox="0 0 1059.67 247.91">
  <path d="M681.64,199.97h-45.25v9.47c0,3.94,6.88,7.13,15.36,7.13h28.64v.02h12.61v-16.6h-11.36v-.02Z" fill="#fff"/>
  <rect x="950.9" y="200.15" width="4.43" height="16.6" fill="#fff"/>
  <rect x="938.01" y="200.14" width="4.82" height="16.6" fill="#fff"/>
  <rect x="925.13" y="200.13" width="5.21" height="16.6" fill="#fff"/>
  <rect x="912.25" y="200.12" width="5.6" height="16.6" fill="#fff"/>
  <rect x="899.37" y="200.12" width="5.99" height="16.6" fill="#fff"/>
  <rect x="886.49" y="200.11" width="6.38" height="16.6" fill="#fff"/>
  <rect x="873.61" y="200.1" width="6.77" height="16.6" fill="#fff"/>
  <rect x="860.73" y="200.09" width="7.16" height="16.6" fill="#fff"/>
  <rect x="847.84" y="200.09" width="7.55" height="16.6" fill="#fff"/>
  <rect x="834.96" y="200.08" width="7.94" height="16.6" fill="#fff"/>
  <rect x="822.08" y="200.07" width="8.32" height="16.6" fill="#fff"/>
  <rect x="809.2" y="200.06" width="8.71" height="16.6" fill="#fff"/>
  <rect x="796.32" y="200.06" width="9.1" height="16.6" fill="#fff"/>
  <rect x="783.44" y="200.05" width="9.49" height="16.6" fill="#fff"/>
  <rect x="770.56" y="200.04" width="9.88" height="16.6" fill="#fff"/>
  <rect x="757.67" y="200.03" width="10.27" height="16.6" fill="#fff"/>
  <rect x="744.79" y="200.03" width="10.66" height="16.6" fill="#fff"/>
  <rect x="731.91" y="200.02" width="11.05" height="16.6" fill="#fff"/>
  <rect x="719.03" y="200.01" width="11.44" height="16.6" fill="#fff"/>
  <rect x="706.15" y="200" width="11.83" height="16.6" fill="#fff"/>
  <rect x="693.27" y="199.99" width="12.22" height="16.6" fill="#fff"/>
  <g>
    <path d="M110.58,211.59c0,1.3-.57,2.41-1.72,3.33-1.14.91-2.52,1.37-4.14,1.37h-.38v.61h.38c1.83,0,3.38-.52,4.67-1.55,1.3-1.04,1.95-2.29,1.95-3.76v-11.1h-.76s0,11.1,0,11.1Z" fill="#fff" stroke="#fff" stroke-miterlimit="10" stroke-width="2"/>
    <path d="M132.01,211.57c0,1.33-.59,2.48-1.78,3.43-1.18.95-2.6,1.43-4.28,1.43s-3.09-.48-4.28-1.43-1.78-2.09-1.78-3.43v-11.1h-.76v11.1c0,1.51.67,2.79,2,3.86s2.93,1.61,4.81,1.61,3.49-.53,4.83-1.61c1.33-1.06,1.99-2.35,1.99-3.86v-11.1h-.76v11.1h0Z" fill="#fff" stroke="#fff" stroke-miterlimit="10" stroke-width="2"/>
    <polygon points="153.99 216.12 142.31 200.48 141.13 200.48 141.13 216.72 141.89 216.72 141.89 201.09 153.55 216.72 154.75 216.72 154.75 200.48 153.99 200.48 153.99 216.12" fill="#fff" stroke="#fff" stroke-miterlimit="10" stroke-width="2"/>
    <rect x="163.03" y="200.48" width=".76" height="16.25" fill="#fff" stroke="#fff" stroke-miterlimit="10" stroke-width="2"/>
    <path d="M188.98,202.75c-2.01-1.62-4.45-2.43-7.3-2.43s-5.29.81-7.3,2.43c-2.02,1.61-3.04,3.56-3.04,5.85s1.01,4.24,3.04,5.85c2.01,1.62,4.45,2.43,7.3,2.43s5.28-.81,7.3-2.43c2.02-1.61,3.04-3.56,3.04-5.85s-1.01-4.23-3.04-5.85ZM188.44,214.02c-1.86,1.5-4.12,2.25-6.76,2.25s-4.9-.75-6.76-2.25c-1.87-1.5-2.81-3.31-2.81-5.42s.94-3.93,2.81-5.42c1.86-1.5,4.12-2.25,6.76-2.25s4.9.75,6.76,2.25c1.87,1.49,2.81,3.3,2.81,5.42s-.94,3.92-2.81,5.42Z" fill="#fff" stroke="#fff" stroke-miterlimit="10" stroke-width="2"/>
    <path d="M210.59,207.55c.9-.81,1.36-1.75,1.36-2.83,0-1.17-.52-2.17-1.55-3-1.04-.83-2.28-1.24-3.73-1.24h-7.13v16.25h.76v-7.77h6.13l5.04,7.77h.85l-5.05-7.79c1.33-.12,2.44-.58,3.33-1.38h0ZM200.29,208.34v-7.25h6.37c1.24,0,2.31.35,3.19,1.06.88.71,1.33,1.57,1.33,2.57s-.44,1.86-1.33,2.56c-.88.71-1.95,1.06-3.19,1.06h-6.37Z" fill="#fff" stroke="#fff" stroke-miterlimit="10" stroke-width="2"/>
    <polygon points="232.84 216.72 233.6 216.72 233.6 208.87 241.33 208.87 241.33 208.27 233.6 208.27 233.6 201.09 243.2 201.09 243.2 200.48 232.84 200.48 232.84 216.72" fill="#fff" stroke="#fff" stroke-miterlimit="10" stroke-width="2"/>
    <path d="M263.88,211.57c0,1.33-.59,2.48-1.78,3.43-1.18.95-2.6,1.43-4.28,1.43s-3.09-.48-4.28-1.43-1.78-2.09-1.78-3.43v-11.1h-.76v11.1c0,1.51.67,2.79,2,3.86s2.93,1.61,4.81,1.61,3.49-.53,4.83-1.61c1.33-1.06,1.99-2.35,1.99-3.86v-11.1h-.76v11.1h.01Z" fill="#fff" stroke="#fff" stroke-miterlimit="10" stroke-width="2"/>
    <polygon points="273.73 200.48 272.97 200.48 272.97 216.72 283.33 216.72 283.33 216.11 273.73 216.11 273.73 200.48" fill="#fff" stroke="#fff" stroke-miterlimit="10" stroke-width="2"/>
    <polygon points="291.7 200.48 290.94 200.48 290.94 216.72 301.3 216.72 301.3 216.11 291.7 216.11 291.7 200.48" fill="#fff" stroke="#fff" stroke-miterlimit="10" stroke-width="2"/>
    <path d="M332.21,210.14c-1.05-.77-2.6-1.38-4.66-1.84-3.82-.86-5.69-2.16-5.59-3.89.07-1.25.72-2.18,1.95-2.78,1.06-.51,2.39-.74,3.97-.69,1.85.07,3.32.57,4.41,1.5l.56-.42c-1.23-1.06-2.88-1.62-4.94-1.69-1.73-.07-3.2.19-4.39.78-1.46.71-2.23,1.8-2.32,3.27-.06,1,.44,1.89,1.48,2.66,1.04.76,2.6,1.37,4.66,1.83,3.82.86,5.69,2.17,5.59,3.93-.05.95-.6,1.76-1.67,2.44-1.15.74-2.57,1.08-4.25,1.03-1.13-.05-2.16-.27-3.11-.69-1.07-.48-1.79-1.11-2.16-1.91l-.71.22c.42.91,1.24,1.64,2.44,2.19,1.06.48,2.23.75,3.5.79.12,0,.24,0,.37,0,1.71,0,3.17-.39,4.38-1.16,1.24-.8,1.9-1.77,1.96-2.9.06-1.02-.44-1.91-1.48-2.68h.01Z" fill="#fff" stroke="#fff" stroke-miterlimit="10" stroke-width="2"/>
    <polygon points="340.38 201.09 346.62 201.09 346.62 216.72 347.38 216.72 347.38 201.09 353.62 201.09 353.62 200.48 340.38 200.48 340.38 201.09" fill="#fff" stroke="#fff" stroke-miterlimit="10" stroke-width="2"/>
    <path d="M359.79,211.81h-.07v.1l-3.8,4.81h.9l3.39-4.3h9.19v4.3h.75v-16.25h-1.41l-8.95,11.34ZM369.4,211.81h-8.71l8.71-11.03v11.03Z" fill="#fff" stroke="#fff" stroke-miterlimit="10" stroke-width="2"/>
    <path d="M380.92,202.76c-2.02,1.61-3.04,3.56-3.04,5.85s1.01,4.24,3.04,5.85c2.01,1.62,4.45,2.43,7.3,2.43,1.35,0,2.64-.2,3.9-.61v-.66c-1.24.44-2.54.66-3.9.66-2.64,0-4.9-.75-6.76-2.25-1.87-1.49-2.81-3.3-2.81-5.42s.94-3.92,2.81-5.42c1.86-1.5,4.12-2.25,6.76-2.25,1.36,0,2.65.22,3.9.67v-.67c-1.25-.41-2.55-.61-3.9-.61-2.85,0-5.29.81-7.3,2.43Z" fill="#fff" stroke="#fff" stroke-miterlimit="10" stroke-width="2"/>
    <polygon points="411.49 200.48 410.52 200.48 400.46 210.5 400.46 200.49 399.7 200.49 399.7 216.72 400.46 216.72 400.46 211.47 402.88 209.05 410.76 216.72 411.75 216.72 403.37 208.57 411.49 200.48" fill="#fff" stroke="#fff" stroke-miterlimit="10" stroke-width="2"/>
    <path d="M444.11,202.87c-1.99-1.59-4.37-2.39-7.16-2.39h-4.69v16.25h4.69c2.79,0,5.17-.8,7.16-2.39,1.98-1.58,2.97-3.5,2.97-5.74s-.99-4.15-2.97-5.74h0ZM443.57,213.92c-1.84,1.46-4.04,2.19-6.62,2.19h-3.92v-15.02h3.92c2.58,0,4.79.73,6.62,2.2,1.84,1.47,2.75,3.24,2.75,5.32s-.92,3.85-2.75,5.32h0Z" fill="#fff" stroke="#fff" stroke-miterlimit="10" stroke-width="2"/>
    <polygon points="454.72 216.72 465.08 216.72 465.08 216.11 455.48 216.11 455.48 208.87 463.21 208.87 463.21 208.27 455.48 208.27 455.48 201.09 465.08 201.09 465.08 200.48 454.72 200.48 454.72 216.72" fill="#fff" stroke="#fff" stroke-miterlimit="10" stroke-width="2"/>
    <polygon points="473.93 216.43 473.93 200.56 473.17 200.56 473.17 216.72 474.59 216.72 486.47 200.56 485.59 200.56 473.93 216.43" fill="#fff" stroke="#fff" stroke-miterlimit="10" stroke-width="2"/>
    <polygon points="493.75 216.72 504.11 216.72 504.11 216.11 494.51 216.11 494.51 208.87 502.23 208.87 502.23 208.27 494.51 208.27 494.51 201.09 504.11 201.09 504.11 200.48 493.75 200.48 493.75 216.72" fill="#fff" stroke="#fff" stroke-miterlimit="10" stroke-width="2"/>
    <polygon points="512.58 200.48 511.81 200.48 511.81 216.72 522.18 216.72 522.18 216.11 512.58 216.11 512.58 200.48" fill="#fff" stroke="#fff" stroke-miterlimit="10" stroke-width="2"/>
    <path d="M542.77,202.75c-2.01-1.62-4.45-2.43-7.3-2.43s-5.28.81-7.3,2.43c-2.02,1.61-3.04,3.56-3.04,5.85s1.01,4.24,3.04,5.85c2.02,1.62,4.45,2.43,7.3,2.43s5.29-.81,7.3-2.43c2.02-1.61,3.04-3.56,3.04-5.85s-1.01-4.23-3.04-5.85ZM542.23,214.02c-1.86,1.5-4.12,2.25-6.76,2.25s-4.9-.75-6.76-2.25c-1.87-1.5-2.81-3.31-2.81-5.42s.94-3.93,2.81-5.42c1.86-1.5,4.12-2.25,6.76-2.25s4.9.75,6.76,2.25c1.87,1.49,2.81,3.3,2.81,5.42s-.94,3.92-2.81,5.42Z" fill="#fff" stroke="#fff" stroke-miterlimit="10" stroke-width="2"/>
    <path d="M564.18,201.72c-1.04-.83-2.28-1.24-3.73-1.24h-7.13v16.25h.76v-7.77h6.37c1.45,0,2.69-.41,3.73-1.24,1.03-.82,1.54-1.82,1.54-2.99s-.51-2.17-1.54-3h0ZM563.65,207.28c-.88.71-1.95,1.06-3.19,1.06h-6.37v-7.25h6.37c1.24,0,2.31.35,3.19,1.06.88.71,1.33,1.57,1.33,2.57s-.44,1.85-1.33,2.56Z" fill="#fff" stroke="#fff" stroke-miterlimit="10" stroke-width="2"/>
    <polygon points="573.38 216.72 583.75 216.72 583.75 216.11 574.15 216.11 574.15 208.87 581.87 208.87 581.87 208.27 574.15 208.27 574.15 201.09 583.75 201.09 583.75 200.48 573.38 200.48 573.38 216.72" fill="#fff" stroke="#fff" stroke-miterlimit="10" stroke-width="2"/>
    <path d="M602.51,207.55c.9-.81,1.36-1.75,1.36-2.83,0-1.17-.52-2.17-1.55-3-1.04-.83-2.28-1.24-3.73-1.24h-7.13v16.25h.76v-7.77h6.13l5.04,7.77h.85l-5.05-7.79c1.33-.12,2.44-.58,3.33-1.38h-.01ZM592.21,208.34v-7.25h6.37c1.24,0,2.31.35,3.19,1.06.88.71,1.33,1.57,1.33,2.57s-.44,1.86-1.33,2.56c-.88.71-1.95,1.06-3.19,1.06h-6.37Z" fill="#fff" stroke="#fff" stroke-miterlimit="10" stroke-width="2"/>
  </g>
  <path d="M613.73,212.67c-1.41,0-2.55.93-2.55,2.07s1.14,2.07,2.55,2.07,2.55-.93,2.55-2.07-1.14-2.07-2.55-2.07ZM613.73,216.32c-1.03,0-1.86-.71-1.86-1.58s.83-1.58,1.86-1.58,1.86.71,1.86,1.58-.84,1.58-1.86,1.58Z" fill="#fff" stroke="#fff" stroke-miterlimit="10"/>
  <path d="M1007.13,189.17H52.16c-10.66,0-19.33,8.67-19.33,19.33s8.67,19.33,19.33,19.33h954.97c10.66,0,19.33-8.67,19.33-19.33s-8.67-19.33-19.33-19.33h0ZM1007.13,225.83H52.16c-9.55,0-17.33-7.77-17.33-17.33s7.77-17.33,17.33-17.33h954.97c9.55,0,17.33,7.77,17.33,17.33s-7.77,17.33-17.33,17.33Z" fill="#fff"/>
  <path d="M1026.97,66.17c0-8.91-13.91-16.57-33.67-19.83-.42-2.21-.76-4.74-1.03-7.67-.1-.99-.17-2.04-.25-3.12-.27-3.88-.44-8.36-.5-13.55-.08,5.1-.24,9.5-.49,13.33-.08,1.05-.15,2.05-.24,3.02-.25,2.84-.56,5.31-.94,7.49-5.58-.75-11.55-1.16-17.77-1.16-30.26,0-54.89,9.65-54.89,21.51,0,6.74,7.95,12.76,20.36,16.7-12.41,3.95-20.36,9.97-20.36,16.7s7.95,12.76,20.36,16.7c-12.41,3.95-20.36,9.97-20.36,16.7,0,8.58,12.88,15.99,31.46,19.44.45,2.38.81,5.13,1.1,8.35.1.99.17,2.05.25,3.14.25,3.81.41,8.19.48,13.25.07-4.96.22-9.27.47-13.03.07-1.05.14-2.06.23-3.02.27-3.1.62-5.76,1.05-8.08,6.16.94,12.85,1.46,19.85,1.46,30.26,0,54.89-9.65,54.89-21.51,0-6.74-7.95-12.76-20.36-16.7,12.41-3.95,20.36-9.97,20.36-16.7s-7.95-12.76-20.36-16.7c12.41-3.95,20.36-9.97,20.36-16.7v-.02ZM992.61,83.96c.19-.87.39-1.69.59-2.47,2.4.39,4.7.85,6.89,1.37-2.4.57-4.92,1.06-7.56,1.48.03-.13.05-.26.08-.39h0ZM989.89,81c.2.78.4,1.6.59,2.48.08.37.16.75.23,1.13-5.8.82-12.07,1.28-18.63,1.28-10.29,0-19.89-1.11-28.01-3.03,8.12-1.92,17.72-3.03,28.01-3.03,6.25,0,12.24.41,17.81,1.16h0ZM919.38,66.17c0-10.88,23.64-19.73,52.7-19.73,6.11,0,11.98.4,17.44,1.11-2.63,12.8-7.91,13.81-16.42,16.98,9.48,3.52,13.55,5.62,16.27,14.64-5.44-.71-11.25-1.1-17.29-1.1-11.72,0-22.58,1.45-31.5,3.91-12.86-3.6-21.21-9.35-21.21-15.81h0ZM948.59,119.17c-2.74,9.72-6.77,11.83-16.52,15.45,8.27,3.07,13.51,4.1,16.2,15.95-17.13-3.26-28.89-9.92-28.89-17.59,0-6.46,8.34-12.21,21.21-15.81,2.54.7,5.23,1.32,8.05,1.84-.01.05-.03.11-.04.16h-.01ZM949.31,116.28c-.08.36-.16.7-.24,1.04-1.72-.31-3.38-.66-4.99-1.04,1.76-.42,3.59-.79,5.48-1.13-.08.38-.16.77-.24,1.13h-.01ZM952.22,117.84c-.08-.31-.16-.61-.24-.94-.16-.66-.31-1.37-.47-2.09,6.32-1.01,13.28-1.57,20.57-1.57,10.29,0,19.88,1.11,28,3.03-8.12,1.91-17.72,3.03-28,3.03-7.03,0-13.73-.52-19.87-1.46h0ZM1024.79,132.98c0,10.88-23.64,19.73-52.7,19.73-6.89,0-13.47-.5-19.51-1.41,2.7-12.34,8.05-13.56,16.45-16.68-9.38-3.48-13.4-5.69-16.15-14.46-.05-.15-.09-.32-.14-.47,6.02.89,12.54,1.38,19.35,1.38,11.72,0,22.58-1.45,31.5-3.91,12.86,3.6,21.21,9.35,21.21,15.81h0ZM1024.79,99.57c0,6.46-8.34,12.21-21.21,15.81-8.92-2.46-19.78-3.91-31.5-3.91-7.41,0-14.47.58-20.92,1.63-.2-1.04-.41-2.13-.61-3.3-.21,1.25-.41,2.41-.62,3.51-3.3.57-6.42,1.27-9.34,2.07-12.86-3.6-21.21-9.35-21.21-15.81s8.34-12.21,21.21-15.81c8.92,2.46,19.78,3.91,31.5,3.91,6.66,0,13.05-.47,18.97-1.32.18.95.35,1.95.53,3,.19-1.12.39-2.17.58-3.17,4.07-.63,7.9-1.44,11.42-2.41,12.86,3.6,21.21,9.35,21.21,15.81h-.01ZM1003.58,81.98c-3.09-.85-6.41-1.58-9.92-2.18,2.75-9.44,6.71-11.69,16.38-15.27-8.32-3.08-13.65-4.32-16.37-16.35,18.32,3.09,31.11,9.99,31.11,17.99,0,6.46-8.34,12.21-21.21,15.81h.01Z" fill="#fff"/>
  <path d="M144.6,172.76c5.14,3.35,11.37,5.02,18.71,5.02s13.66-1.67,18.79-5.02c5.14-3.34,9.05-7.94,11.74-13.79,2.69-5.84,4.04-12.46,4.04-19.86s-1.35-14.22-4.04-20.07c-2.69-5.84-6.6-10.44-11.74-13.79-5.14-3.34-11.4-5.02-18.79-5.02s-13.59,1.69-18.75,5.07-9.09,7.99-11.78,13.84-4.04,12.5-4.04,19.96,1.36,14.01,4.08,19.86,6.64,10.44,11.78,13.79h0ZM145.21,137.64c0-6.69,1.63-11.92,4.89-15.69,3.26-3.77,7.66-5.65,13.21-5.65s9.95,1.89,13.21,5.65c3.26,3.77,4.89,9,4.89,15.69v2.75c0,6.69-1.63,11.92-4.89,15.69s-7.66,5.65-13.21,5.65-9.95-1.88-13.21-5.65c-3.26-3.77-4.89-8.99-4.89-15.69v-2.75Z" fill="#fff"/>
  <path d="M220.46,175.82c4.35,1.3,9.05,1.95,14.1,1.95,6.3,0,11.82-.92,16.55-2.75,4.73-1.83,8.4-4.6,11.01-8.29,2.61-3.7,3.91-8.29,3.91-13.79,0-5.92-1.63-10.67-4.89-14.26s-8.43-5.95-15.49-7.08l-17.28-2.75c-3.04-.49-5.23-1.27-6.56-2.32-1.33-1.06-2-2.46-2-4.22,0-2.04,1.21-3.61,3.63-4.7s5.64-1.64,9.66-1.64c4.78,0,8.65.67,11.62,2.01,2.96,1.34,5.26,3.98,6.89,7.92l13.94-5.6c-1.85-5.21-4.36-9.26-7.54-12.15-3.18-2.89-6.8-4.93-10.84-6.13-4.05-1.2-8.3-1.8-12.76-1.8-6.14,0-11.51.9-16.1,2.69-4.59,1.8-8.14,4.47-10.64,8.03s-3.75,8.05-3.75,13.47c0,6.13,1.79,10.92,5.38,14.37,3.59,3.45,9.02,5.77,16.31,6.97l15.74,2.54c3.37.49,5.65,1.3,6.85,2.43,1.19,1.13,1.79,2.5,1.79,4.12,0,2.11-1.22,3.84-3.67,5.18s-6.03,2.01-10.76,2.01c-3.86,0-7.01-.37-9.46-1.11-2.45-.74-4.42-1.9-5.91-3.49-1.5-1.58-2.79-3.64-3.87-6.18l-14.59,5.6c1.74,5.21,4.21,9.35,7.42,12.41,3.21,3.06,6.98,5.25,11.33,6.55h-.02Z" fill="#fff"/>
  <path d="M273.21,101.51v75h16.31v-19.33l9.7-11.94,17.28,31.27h34.73l6.28-17.75h27.31l6.36,17.75h17.37l-28.21-75h-17.28l-27.72,73.7-24.38-42.86,24.87-30.84h-19.89l-26.42,32.85v-32.85h-16.31ZM371.29,120.74l8.48,23.66h-17.04s8.56-23.66,8.56-23.66Z" fill="#fff"/>
  <path d="M413.12,176.51h16.31v-24.08h13.37l11.25,24.08h18.59l-13.13-26.83c4.08-1.9,7.19-4.79,9.34-8.66,2.15-3.87,3.22-8.73,3.22-14.58,0-8.1-1.94-14.28-5.83-18.54-3.89-4.26-9.69-6.39-17.41-6.39h-35.71v75h0ZM429.42,117.15h17.94c5.6,0,8.4,3.17,8.4,9.51v1.06c0,6.41-2.8,9.61-8.4,9.61h-17.94v-20.18Z" fill="#fff"/>
  <path d="M514.41,125.91c1.77-3.17,4.16-5.55,7.17-7.13,3.02-1.58,6.37-2.38,10.07-2.38,2.66,0,5.16.33,7.5,1s4.41,1.9,6.24,3.7c1.82,1.8,3.27,4.42,4.36,7.87l14.59-4.54c-1.03-4.65-2.98-8.78-5.83-12.41-2.85-3.63-6.55-6.48-11.09-8.56-4.54-2.08-9.88-3.12-16.02-3.12-7.01,0-13.24,1.58-18.67,4.75-5.44,3.17-9.7,7.64-12.8,13.42-3.1,5.77-4.65,12.61-4.65,20.49s1.48,14.74,4.44,20.55,7.07,10.32,12.31,13.52c5.24,3.21,11.26,4.81,18.06,4.81,4.13,0,8.1-.7,11.9-2.11,3.8-1.41,7.09-3.63,9.87-6.65l.65,7.39h12.96v-42.68h-35.87v14.58h20.87v.74c0,2.75-.75,5.07-2.24,6.97-1.5,1.9-3.55,3.36-6.16,4.38s-5.6,1.53-8.97,1.53c-4.13,0-7.81-.83-11.05-2.48-3.23-1.65-5.76-4.12-7.58-7.39s-2.73-7.3-2.73-12.09v-2.11c0-4.86.88-8.87,2.65-12.04h.02Z" fill="#fff"/>
  <polygon points="627.86 117.15 627.86 101.51 574.05 101.51 574.05 176.51 628.44 176.51 628.44 160.88 590.36 160.88 590.36 146.09 624.2 146.09 624.2 131.09 590.36 131.09 590.36 117.15 627.86 117.15" fill="#fff"/>
  <path d="M651.51,175.82c4.35,1.3,9.05,1.95,14.11,1.95,6.3,0,11.82-.92,16.55-2.75s8.4-4.6,11.01-8.29c2.61-3.7,3.91-8.29,3.91-13.79,0-5.92-1.63-10.67-4.89-14.26s-8.43-5.95-15.49-7.08l-17.28-2.75c-3.04-.49-5.23-1.27-6.56-2.32-1.33-1.06-2-2.46-2-4.22,0-2.04,1.21-3.61,3.63-4.7s5.64-1.64,9.66-1.64c4.78,0,8.66.67,11.62,2.01,2.96,1.34,5.26,3.98,6.89,7.92l13.94-5.6c-1.85-5.21-4.36-9.26-7.54-12.15s-6.8-4.93-10.84-6.13c-4.05-1.2-8.3-1.8-12.76-1.8-6.14,0-11.51.9-16.1,2.69-4.59,1.8-8.14,4.47-10.64,8.03s-3.75,8.05-3.75,13.47c0,6.13,1.79,10.92,5.38,14.37s9.02,5.77,16.31,6.97l15.74,2.54c3.37.49,5.65,1.3,6.85,2.43,1.19,1.13,1.79,2.5,1.79,4.12,0,2.11-1.22,3.84-3.67,5.18s-6.03,2.01-10.76,2.01c-3.86,0-7.01-.37-9.46-1.11s-4.42-1.9-5.91-3.49c-1.5-1.58-2.79-3.64-3.87-6.18l-14.59,5.6c1.74,5.21,4.21,9.35,7.42,12.41,3.21,3.06,6.98,5.25,11.33,6.55h-.03Z" fill="#fff"/>
  <polygon points="737.52 176.51 737.52 117.15 760.51 117.15 760.51 101.51 698.22 101.51 698.22 117.15 721.22 117.15 721.22 176.51 737.52 176.51" fill="#fff"/>
  <polygon points="820.36 117.15 820.36 101.51 766.55 101.51 766.55 176.51 820.93 176.51 820.93 160.88 782.85 160.88 782.85 146.09 816.69 146.09 816.69 131.09 782.85 131.09 782.85 117.15 820.36 117.15" fill="#fff"/>
  <path d="M828.75,176.51h16.31v-24.08h13.37l11.25,24.08h18.59l-13.13-26.83c4.08-1.9,7.19-4.79,9.34-8.66,2.15-3.87,3.22-8.73,3.22-14.58,0-8.1-1.94-14.28-5.83-18.54s-9.69-6.39-17.41-6.39h-35.71v75h0ZM845.06,117.15h17.94c5.6,0,8.4,3.17,8.4,9.51v1.06c0,6.41-2.8,9.61-8.4,9.61h-17.94v-20.18Z" fill="#fff"/>
  <path d="M164.36,71.08c-5.85,0-10.56,2.02-14,6-3.17,3.68-4.87,8.72-5.05,14.97l2,.04c.17-5.92,1.75-10.66,4.69-14.07,3.09-3.57,7.13-5.31,12.36-5.31s9.26,1.74,12.36,5.31c2.93,3.4,4.5,8.14,4.67,14.07l2-.04c-.18-6.26-1.87-11.3-5.04-14.97-3.46-3.98-8.17-6-14-6h0Z" fill="#fff"/>
  <path d="M193.89,74.94c2.31,5.03,3.62,10.8,3.89,17.16l2-.06c-.28-6.54-1.63-12.49-4.02-17.68-2.75-5.97-6.79-10.73-12.02-14.14-5.28-3.45-11.8-5.19-19.38-5.19s-14.04,1.77-19.35,5.25c-5.27,3.47-9.33,8.24-12.06,14.19-2.39,5.21-3.74,11.13-4.02,17.57l2,.06c.27-6.27,1.58-12.01,3.89-17.06,2.61-5.67,6.46-10.21,11.45-13.49,4.94-3.24,11.03-4.89,18.1-4.89s13.21,1.63,18.13,4.84c4.94,3.22,8.78,7.75,11.4,13.44h0Z" fill="#fff"/>
  <path d="M259.59,63.23c-3.27-2.98-7.05-5.12-11.22-6.36-4.14-1.22-8.54-1.84-13.07-1.84-6.24,0-11.79.93-16.5,2.77-4.74,1.87-8.46,4.68-11.05,8.36-2.57,3.66-3.88,8.33-3.88,13.87,0,4.98,1.18,9.17,3.51,12.45l1.73-.82c-2.15-3.03-3.24-6.94-3.24-11.63,0-5.25,1.22-9.65,3.62-13.06,2.38-3.39,5.81-5.98,10.18-7.7,4.43-1.73,9.69-2.61,15.63-2.61,4.3,0,8.47.59,12.39,1.74,3.85,1.15,7.36,3.14,10.41,5.92,2.92,2.65,5.3,6.4,7.07,11.18l-12.14,4.89c-1.69-3.66-4.03-6.18-6.96-7.5-3.07-1.4-7.14-2.11-12.07-2.11-4.18,0-7.59.59-10.12,1.75-2.75,1.23-4.14,3.05-4.14,5.41,0,1.98.77,3.59,2.29,4.8,1.48,1.18,3.79,2.01,7.06,2.54l17.25,2.74c5.29.86,9.5,2.42,12.51,4.66l1.35-1.2c-3.29-2.44-7.82-4.14-13.47-5.05l-17.24-2.74c-2.84-.46-4.87-1.17-6.05-2.11-1.13-.9-1.69-2.09-1.69-3.64,0-1.75,1.01-3.05,3.11-3.99,2.24-1.02,5.32-1.54,9.15-1.54,4.59,0,8.32.64,11.1,1.91,2.71,1.22,4.87,3.73,6.42,7.47l.37.88,15.68-6.32-.23-.65c-1.88-5.32-4.49-9.51-7.74-12.46h-.02Z" fill="#fff"/>
  <polygon points="273.02 56.3 273.02 92.07 275.02 92.07 275.02 57.93 289.3 57.93 289.3 92.7 317.18 57.93 334.65 57.93 310.55 87.89 313.12 92.41 314.94 91.73 312.83 88.02 338.35 56.3 316.1 56.3 291.3 87.23 291.3 56.3 273.02 56.3" fill="#fff"/>
  <polygon points="376.56 92.3 378.48 91.84 371.88 73.44 365.25 91.84 367.17 92.3 371.88 79.23 376.56 92.3" fill="#fff"/>
  <polygon points="364.41 57.93 380.17 57.93 393.08 92.31 394.99 91.83 381.65 56.3 362.92 56.3 349.59 91.83 351.5 92.31 364.41 57.93" fill="#fff"/>
  <path d="M451.49,91.37l1.01,1.41c3.1-1.47,4.68-4.65,4.68-9.47v-1.06c0-8.53-5.11-10.32-9.39-10.32h-18.89v20.14h2v-18.51h16.89c4.97,0,7.39,2.84,7.39,8.69v1.06c0,4.19-1.24,6.9-3.68,8.06h-.01Z" fill="#fff"/>
  <path d="M467.42,63.01c-4.06-4.46-10.17-6.71-18.17-6.71h-36.64v35.77h2v-34.14h34.64c7.43,0,12.85,1.98,16.56,6.06,3.73,4.11,5.62,10.18,5.62,18.06,0,3.68-.43,6.99-1.29,9.84l1.94.39c.89-2.97,1.34-6.41,1.34-10.22,0-8.23-2.02-14.63-6.01-19.03v-.02Z" fill="#fff"/>
  <path d="M501.17,74.44c3-5.6,7.19-10,12.45-13.08,5.21-3.05,11.28-4.6,18.04-4.6,5.91,0,11.12,1.01,15.49,3.02,4.36,2,7.97,4.79,10.71,8.28,2.63,3.35,4.49,7.2,5.52,11.45l-12.75,3.98c-1.1-3.17-2.5-5.57-4.26-7.31-1.91-1.88-4.14-3.21-6.66-3.95-2.42-.69-5.05-1.04-7.83-1.04-3.88,0-7.44.84-10.58,2.51-3.16,1.66-5.69,4.18-7.53,7.48-1.63,2.92-2.54,6.57-2.68,10.87l2,.05c.14-4.07.98-7.52,2.51-10.24,1.67-3.01,3.96-5.29,6.79-6.78,2.82-1.49,6.01-2.24,9.5-2.24,2.55,0,4.96.32,7.16.94,2.16.63,4.11,1.79,5.78,3.45,1.71,1.69,3.11,4.23,4.16,7.56l.28.88,16.38-5.11-.15-.66c-1.04-4.72-3.05-8.99-5.96-12.7-2.92-3.72-6.77-6.69-11.42-8.82-4.67-2.14-10.22-3.23-16.47-3.23-7.19,0-13.66,1.65-19.21,4.91-5.56,3.25-9.97,7.87-13.11,13.75-2.79,5.23-4.36,11.37-4.65,18.25l2,.06c.28-6.68,1.79-12.62,4.48-17.66v-.02Z" fill="#fff"/>
  <polygon points="566.66 88.62 528.86 88.62 528.86 92.07 530.86 92.07 530.86 90.25 564.66 90.25 564.66 92.07 566.66 92.07 566.66 88.62" fill="#fff"/>
  <polygon points="628.9 56.3 573.21 56.3 573.21 92.07 575.21 92.07 575.21 57.93 626.9 57.93 626.9 71.93 589.47 71.93 589.47 87.5 623.23 87.5 623.23 92.07 625.23 92.07 625.23 85.88 591.47 85.88 591.47 73.56 628.9 73.56 628.9 56.3" fill="#fff"/>
  <path d="M654.94,73.94c2.26-1.02,5.34-1.54,9.15-1.54,4.6,0,8.33.64,11.11,1.91,2.72,1.22,4.87,3.74,6.41,7.47l.36.89,15.69-6.32-.23-.65c-1.87-5.3-4.48-9.49-7.74-12.46-3.28-2.98-7.06-5.12-11.23-6.36-4.14-1.22-8.53-1.84-13.06-1.84-6.25,0-11.81.93-16.52,2.77-4.75,1.87-8.47,4.68-11.04,8.36-2.57,3.66-3.88,8.33-3.88,13.87,0,4.98,1.18,9.17,3.51,12.45l1.73-.82c-2.15-3.03-3.25-6.94-3.25-11.63,0-5.25,1.22-9.65,3.62-13.06,2.37-3.39,5.79-5.98,10.17-7.7,4.43-1.73,9.7-2.61,15.65-2.61,4.29,0,8.45.59,12.37,1.74,3.86,1.14,7.37,3.14,10.42,5.92,2.93,2.67,5.31,6.43,7.08,11.18l-12.15,4.89c-1.68-3.66-4.01-6.18-6.95-7.5-3.08-1.4-7.14-2.11-12.08-2.11-4.16,0-7.57.59-10.13,1.75-2.74,1.24-4.13,3.06-4.13,5.41,0,1.97.77,3.58,2.3,4.8,1.48,1.18,3.79,2.01,7.06,2.54l17.25,2.74c5.29.86,9.5,2.42,12.51,4.66l1.35-1.2c-3.29-2.44-7.82-4.14-13.47-5.05l-17.24-2.74c-2.84-.46-4.87-1.17-6.05-2.11-1.14-.91-1.7-2.1-1.7-3.64,0-1.74,1.02-3.05,3.11-3.99v-.02Z" fill="#fff"/>
  <polygon points="761.25 56.3 697.1 56.3 697.1 73.56 720.05 73.56 720.05 92.07 722.05 92.07 722.05 71.93 699.1 71.93 699.1 57.93 759.25 57.93 759.25 71.93 736.32 71.93 736.32 92.07 738.32 92.07 738.32 73.56 761.25 73.56 761.25 56.3" fill="#fff"/>
  <polygon points="767.28 57.93 818.96 57.93 818.96 71.93 781.55 71.93 781.55 87.5 815.31 87.5 815.31 92.07 817.31 92.07 817.31 85.88 783.55 85.88 783.55 73.56 820.96 73.56 820.96 56.3 765.28 56.3 765.28 92.07 767.28 92.07 767.28 57.93" fill="#fff"/>
  <path d="M866.23,91.37l1.01,1.41c3.09-1.46,4.66-4.65,4.66-9.47v-1.06c0-8.53-5.1-10.32-9.38-10.32h-18.91v20.14h2v-18.51h16.91c4.96,0,7.38,2.84,7.38,8.69v1.06c0,4.2-1.23,6.91-3.67,8.06Z" fill="#fff"/>
  <path d="M829.35,57.93h34.62c7.34,0,12.92,2.04,16.57,6.06,3.73,4.11,5.62,10.18,5.62,18.06,0,3.65-.44,6.96-1.3,9.84l1.94.39c.9-3,1.36-6.44,1.36-10.22,0-8.23-2.02-14.63-6.01-19.03-4.06-4.46-10.17-6.71-18.18-6.71h-36.62v35.77h2v-34.16Z" fill="#fff"/>
  <path d="M162.56,38.37c5.27,0,9.51,1.82,12.61,5.4.95,1.09,1.79,2.37,2.49,3.8l1.39-.45c-.74-1.52-1.64-2.89-2.65-4.06-3.39-3.92-8.05-5.91-13.83-5.91s-10.44,1.99-13.83,5.91c-1.02,1.17-1.91,2.54-2.66,4.06l1.39.45c.7-1.43,1.53-2.71,2.49-3.8,3.09-3.58,7.33-5.39,12.61-5.39h-.01Z" fill="#fff"/>
  <path d="M132.71,40.82c2.63-5.72,6.52-10.28,11.56-13.57,5-3.28,11.16-4.94,18.29-4.94s13.35,1.65,18.34,4.89c5.01,3.26,8.89,7.81,11.51,13.51,1,2.17,1.81,4.44,2.41,6.76l1.47-.25c-.62-2.37-1.45-4.7-2.47-6.93-2.72-5.92-6.75-10.64-11.98-14.04-5.27-3.42-11.75-5.16-19.28-5.16s-13.96,1.75-19.23,5.21c-5.25,3.42-9.3,8.16-12.02,14.09-1.01,2.21-1.84,4.51-2.46,6.82l1.47.26c.6-2.26,1.41-4.49,2.4-6.65h0Z" fill="#fff"/>
  <path d="M203.98,47.32c-.02-.46-.03-.94-.03-1.43,0-5.3,1.23-9.73,3.64-13.17,2.42-3.43,5.9-6.05,10.33-7.77,4.47-1.75,9.78-2.64,15.79-2.64,4.36,0,8.57.59,12.51,1.76,3.93,1.17,7.49,3.17,10.56,5.96,2.98,2.7,5.4,6.54,7.21,11.42l-12.64,5.07c-1.67-3.71-4.01-6.27-6.95-7.61-3.07-1.38-7.11-2.07-11.99-2.07-4.21,0-7.49.56-10.03,1.71-2.67,1.21-4.02,2.97-4.02,5.23,0,1.55.49,2.88,1.45,3.93l1.2-.73c-.78-.85-1.15-1.9-1.15-3.2,0-1.82,1.06-3.18,3.25-4.17,2.28-1.03,5.41-1.56,9.31-1.56,4.63,0,8.42.65,11.26,1.92,2.76,1.25,4.95,3.79,6.52,7.53l.06.82,15.54-6.24-.18-.49c-1.89-5.29-4.49-9.45-7.71-12.38-3.24-2.94-6.99-5.05-11.16-6.29-4.11-1.22-8.5-1.84-13.03-1.84-6.23,0-11.76.93-16.44,2.76-4.71,1.83-8.4,4.61-10.98,8.27-2.55,3.63-3.84,8.26-3.84,13.78,0,.5.02.99.03,1.47l1.5-.04h-.01Z" fill="#fff"/>
  <polygon points="273.3 23.57 288.12 23.57 288.12 47.34 289.62 47.34 289.62 22.35 271.8 22.35 271.8 47.34 273.3 47.34 273.3 23.57" fill="#fff"/>
  <polygon points="315.72 23.57 333.83 23.57 314.93 47.01 316.18 47.68 336.61 22.35 314.91 22.35 295.07 47.01 296.33 47.68 315.72 23.57" fill="#fff"/>
  <polygon points="369.58 47.51 370.72 44.36 371.85 47.51 373.29 47.17 370.73 40.03 368.14 47.17 369.58 47.51" fill="#fff"/>
  <polygon points="363.04 23.57 379.21 23.57 388.22 47.52 389.66 47.16 380.32 22.35 361.93 22.35 352.59 47.16 354.02 47.52 363.04 23.57" fill="#fff"/>
  <path d="M413.32,23.57h34.99c7.42,0,13.08,2.07,16.83,6.15,3.68,4.04,5.59,9.97,5.68,17.62h1.5c-.1-7.93-2.11-14.1-5.98-18.35-4.04-4.41-10.11-6.64-18.03-6.64h-36.49v24.99h1.5v-23.77h0Z" fill="#fff"/>
  <path d="M446.85,39.22c4.93,0,7.42,2.66,7.64,8.15l1.5-.04c-.24-6.19-3.31-9.33-9.13-9.33h-18.71v9.35h1.5v-8.13h17.21-.01Z" fill="#fff"/>
  <path d="M538.97,38.29c-2.43-.69-5.04-1.04-7.75-1.04-3.83,0-7.36.83-10.5,2.47-3.12,1.64-5.63,4.12-7.44,7.36l1.37.51c1.69-3.03,4.01-5.33,6.89-6.84,2.89-1.51,6.15-2.28,9.68-2.28,2.54,0,4.98.33,7.25.97,2.22.63,4.16,1.78,5.92,3.51,1.16,1.16,2.19,2.71,3.06,4.61l1.41-.42c-.92-2.03-2.04-3.69-3.31-4.96-1.91-1.88-4.12-3.19-6.58-3.88h0Z" fill="#fff"/>
  <path d="M500.16,40.22c3.03-5.65,7.26-10.08,12.55-13.17,5.31-3.08,11.45-4.64,18.25-4.64,5.99,0,11.26,1.02,15.67,3.04,4.42,2.02,8.07,4.83,10.84,8.35,2.68,3.41,4.58,7.34,5.63,11.7l-4.07,1.27.54,1.14,5.24-1.63-.11-.5c-1.06-4.71-3.06-8.97-5.95-12.64-2.9-3.69-6.72-6.64-11.36-8.76-4.63-2.12-10.15-3.2-16.4-3.2-7.12,0-13.55,1.64-19.12,4.87-5.52,3.23-9.91,7.83-13.05,13.67-1.24,2.29-2.25,4.8-3,7.47l1.46.27c.73-2.6,1.71-5.04,2.91-7.26l-.03.02Z" fill="#fff"/>
  <polygon points="574.4 23.57 626.74 23.57 626.74 38 589.22 38 589.22 47.34 590.72 47.34 590.72 39.22 628.24 39.22 628.24 22.35 572.9 22.35 572.9 47.34 574.4 47.34 574.4 23.57" fill="#fff"/>
  <path d="M635.38,47.32c-.02-.46-.03-.94-.03-1.43,0-5.29,1.23-9.72,3.66-13.17,2.43-3.44,5.9-6.05,10.33-7.77,4.47-1.75,9.78-2.64,15.79-2.64,4.34,0,8.55.59,12.51,1.76,3.92,1.16,7.47,3.17,10.54,5.96,3,2.72,5.42,6.56,7.21,11.42l-12.62,5.07c-1.69-3.76-3.97-6.26-6.97-7.61-3.05-1.38-7.08-2.07-11.98-2.07-4.17,0-7.54.58-10.04,1.71-2.67,1.21-4.02,2.97-4.02,5.23,0,1.55.49,2.88,1.45,3.93l1.2-.73c-.78-.85-1.15-1.9-1.15-3.2,0-1.82,1.06-3.18,3.25-4.17,2.27-1.03,5.4-1.55,9.3-1.55,4.64,0,8.42.65,11.25,1.92,2.81,1.27,4.94,3.73,6.53,7.53l.06.82,15.52-6.24-.17-.49c-1.87-5.27-4.46-9.43-7.71-12.38-3.24-2.94-6.99-5.06-11.15-6.29-4.13-1.22-8.51-1.84-13.03-1.84-6.23,0-11.76.93-16.44,2.76-4.7,1.82-8.4,4.61-10.98,8.27-2.56,3.64-3.86,8.28-3.86,13.78,0,.5.02.99.03,1.47l1.5-.03.02-.02Z" fill="#fff"/>
  <polygon points="720.17 47.34 721.67 47.34 721.67 38 698.67 38 698.67 23.57 759.52 23.57 759.52 38 736.5 38 736.5 47.34 738 47.34 738 39.22 761.02 39.22 761.02 22.35 697.17 22.35 697.17 39.22 720.17 39.22 720.17 47.34" fill="#fff"/>
  <polygon points="767.04 23.57 819.4 23.57 819.4 38 781.86 38 781.86 47.34 783.36 47.34 783.36 39.22 820.9 39.22 820.9 22.35 765.54 22.35 765.54 47.34 767.04 47.34 767.04 23.57" fill="#fff"/>
  <path d="M844.13,38v9.35h1.5v-8.13h17.19c4.93,0,7.42,2.66,7.64,8.15l1.5-.04c-.24-6.19-3.31-9.33-9.14-9.33,0,0-18.69,0-18.69,0Z" fill="#fff"/>
  <path d="M829.31,23.57h34.99c7.43,0,13.08,2.07,16.81,6.15,3.68,4.04,5.59,9.97,5.68,17.62h1.5c-.1-7.93-2.11-14.1-5.98-18.35-4.03-4.41-10.09-6.65-18.01-6.65h-36.49v24.99h1.5v-23.77h0Z" fill="#fff"/>
  <polygon points="100.1 177.91 100.1 147.06 66.41 118.89 32.7 147.07 32.7 177.92 66.41 149.74 100.1 177.91" fill="#fff"/>
  <polygon points="100.1 129.47 100.1 98.62 66.41 70.45 32.7 98.63 32.7 129.48 66.41 101.3 100.1 129.47" fill="#fff"/>
  <polygon points="100.1 81.03 100.1 50.18 66.41 22.01 32.7 50.19 32.7 81.04 66.41 52.86 100.1 81.03" fill="#fff"/>
  <path d="M1042.99,1H16.68C8.03,1,1,8.03,1,16.68v214.55c0,8.65,7.03,15.68,15.68,15.68h1026.31c8.65,0,15.68-7.03,15.68-15.68V16.68c0-8.65-7.03-15.68-15.68-15.68h0ZM1056.67,231.23c0,7.54-6.14,13.68-13.68,13.68H16.68c-7.54,0-13.68-6.14-13.68-13.68V16.68c0-7.54,6.14-13.68,13.68-13.68h1026.31c7.54,0,13.68,6.14,13.68,13.68v214.55h0Z" fill="#fff" stroke="#fff" stroke-miterlimit="10" stroke-width="2"/>
</svg>